<svg width="24" height="24" viewBox="0 0 24 24" fill="none" xmlns="http://www.w3.org/2000/svg">
  <!-- Radical dot (large filled circle, top right) -->
  <circle cx="18" cy="6" r="3" fill="currentColor"/>
  <!-- Letter R for Radical -->
  <path d="M4 19V6H9.5C10.6 6 11.5 6.35 12.2 7.05C12.9 7.75 13.25 8.6 13.25 9.6C13.25 10.35 13.05 11 12.65 11.55C12.25 12.1 11.7 12.5 11 12.75L13.5 19H11.3L9.1 13.2H6V19H4ZM6 11.4H9.4C9.97 11.4 10.43 11.22 10.79 10.86C11.15 10.5 11.33 10.05 11.33 9.5C11.33 8.95 11.15 8.5 10.79 8.14C10.43 7.78 9.97 7.6 9.4 7.6H6V11.4Z" fill="currentColor"/>
</svg>
